<svg xmlns="http://www.w3.org/2000/svg" xmlns:xlink="http://www.w3.org/1999/xlink" viewBox="0 0 60 52" fill="none"><defs><linearGradient id="linear_0" x1="0%" y1="50%" x2="100%" y2="50%" gradientUnits="objectBoundingBox"><stop offset="0" stop-color="#43E97B" stop-opacity="1" /><stop offset="1" stop-color="#38F9D7" stop-opacity="1" /></linearGradient><linearGradient id="linear_1" x1="0%" y1="50%" x2="100%" y2="50%" gradientUnits="objectBoundingBox"><stop offset="0" stop-color="#43E97B" stop-opacity="1" /><stop offset="1" stop-color="#38F9D7" stop-opacity="1" /></linearGradient><rect id="path_0" x="0" y="0" width="28" height="20" /></defs><g opacity="1" transform="translate(3 2.0828406377404463e-7)  rotate(0 26.75 25.769754201505975)"><g opacity="1" transform="translate(0 6.907373954820777)  rotate(0 26.75 22.316067224095587)"><path id="路径 2"  style="fill:#43E97B" transform="translate(16 20.587194981736147)  rotate(0 2.8486970162685807 7.29068975474927)" opacity="0.6" d="M3.36883 -0.90984Q3.41353 -1.02423 3.46923 -1.1337Q3.52492 -1.24316 3.59108 -1.34664Q3.65723 -1.45011 3.73321 -1.54661Q3.80919 -1.6431 3.89427 -1.73168Q3.97934 -1.82027 4.07268 -1.90008Q4.16603 -1.9799 4.26675 -2.05018Q4.36747 -2.12047 4.47459 -2.18054Q4.58171 -2.24061 4.69421 -2.28989Q4.8067 -2.33918 4.92349 -2.3772Q5.04027 -2.41522 5.16022 -2.44161Q5.28017 -2.468 5.40213 -2.4825Q5.52408 -2.49701 5.64687 -2.49949Q5.76967 -2.50197 5.89211 -2.49241Q6.01456 -2.48284 6.13547 -2.46132Q6.25639 -2.4398 6.37461 -2.40653Q6.49284 -2.37326 6.60723 -2.32856Q6.72162 -2.28387 6.83107 -2.22818Q6.94052 -2.17249 7.04398 -2.10635Q7.14745 -2.0402 7.24393 -1.96424Q7.34042 -1.88827 7.42899 -1.80321Q7.51757 -1.71815 7.59738 -1.62482Q7.67719 -1.5315 7.74747 -1.43079Q7.81776 -1.33009 7.87783 -1.22299Q7.9379 -1.11588 7.98719 -1.00341Q8.03648 -0.89093 8.07451 -0.774164Q8.11254 -0.657398 8.13894 -0.537468Q8.16534 -0.417537 8.17986 -0.295596Q8.19438 -0.173656 8.19688 -0.0508792Q8.19938 0.0718974 8.18983 0.194328Q8.18029 0.316758 8.15879 0.437664Q8.13729 0.55857 8.10404 0.676786Q8.0708 0.795003 8.02613 0.909392L8.02839 0.910276L2.32839 15.4903L-2.32839 13.6697L3.37109 -0.908956L3.36883 -0.90984ZM-0.90984 16.9099Q-0.795445 16.9546 -0.67722 16.9879Q-0.558995 17.0212 -0.438078 17.0427Q-0.317161 17.0642 -0.194717 17.0738Q-0.072273 17.0834 0.0505191 17.0809Q0.173311 17.0784 0.295269 17.0639Q0.417226 17.0494 0.537175 17.023Q0.657123 16.9966 0.773907 16.9586Q0.890691 16.9206 1.00319 16.8713Q1.11568 16.822 1.2228 16.7619Q1.32993 16.7018 1.43065 16.6316Q1.53137 16.5613 1.62471 16.4815Q1.71806 16.4016 1.80313 16.3131Q1.8882 16.2245 1.96418 16.128Q2.04016 16.0315 2.10632 15.928Q2.17247 15.8245 2.22817 15.7151Q2.28386 15.6056 2.32856 15.4912L-2.32856 13.6715Q-2.37326 13.7859 -2.40653 13.9042Q-2.4398 14.0224 -2.46132 14.1433Q-2.48284 14.2642 -2.49241 14.3867Q-2.50197 14.5091 -2.49949 14.6319Q-2.49701 14.7547 -2.4825 14.8766Q-2.468 14.9986 -2.44161 15.1186Q-2.41522 15.2385 -2.3772 15.3553Q-2.33918 15.4721 -2.28989 15.5846Q-2.24061 15.6971 -2.18054 15.8042Q-2.12047 15.9113 -2.05018 16.012Q-1.9799 16.1127 -1.90008 16.2061Q-1.82027 16.2994 -1.73168 16.3845Q-1.6431 16.4696 -1.54661 16.5456Q-1.45011 16.6215 -1.34664 16.6877Q-1.24316 16.7539 -1.1337 16.8095Q-1.02423 16.8652 -0.90984 16.9099Z " /><path  id="路径 2" style="stroke:#43E97B; stroke-width:5; stroke-opacity:0.6; stroke-dasharray:0 0" transform="translate(16 20.587194981736147)  rotate(0 2.8486970162685807 7.29068975474927)" d="" /><path id="路径 1"  fill="url(#linear_0)" transform="translate(0 11.587194981736147)  rotate(0 26.75 13)" opacity="1" d="M-2.08094 2.16094Q-2.1871 2.05871 -2.28273 1.94657Q-2.37836 1.83443 -2.46254 1.71345Q-2.54671 1.59248 -2.61862 1.46383Q-2.69054 1.33519 -2.7495 1.20011Q-2.80845 1.06504 -2.85389 0.92484Q-2.89932 0.784638 -2.93079 0.640658Q-2.96227 0.496678 -2.97948 0.350307Q-2.99669 0.203935 -2.99947 0.0565815Q-3.00225 -0.090772 -2.99057 -0.237688Q-2.97889 -0.384605 -2.95287 -0.529669Q-2.92685 -0.674734 -2.88674 -0.816549Q-2.84662 -0.958365 -2.7928 -1.09557Q-2.73898 -1.23277 -2.67197 -1.36403Q-2.60496 -1.4953 -2.52541 -1.61936Q-2.44585 -1.74343 -2.35452 -1.85909Q-2.26319 -1.97476 -2.16096 -2.08092Q-2.05873 -2.18709 -1.94659 -2.28272Q-1.83445 -2.37835 -1.71347 -2.46252Q-1.59249 -2.5467 -1.46385 -2.61861Q-1.33521 -2.69053 -1.20013 -2.74949Q-1.06506 -2.80845 -0.924856 -2.85388Q-0.784654 -2.89932 -0.640673 -2.93079Q-0.496693 -2.96227 -0.35032 -2.97948Q-0.203948 -2.99669 -0.0565938 -2.99947Q0.0907605 -3.00225 0.237678 -2.99057Q0.384595 -2.97889 0.52966 -2.95287Q0.674726 -2.92685 0.816542 -2.88674Q0.958358 -2.84662 1.09556 -2.7928Q1.23276 -2.73898 1.36403 -2.67197Q1.49529 -2.60496 1.61936 -2.52541Q1.74342 -2.44585 1.85909 -2.35452Q1.97476 -2.26319 2.08092 -2.16096L0 0L2.08094 -2.16094L25.5809 20.4691Q26.1657 21.0328 26.9776 21.0288Q27.7908 21.0247 28.371 20.4566L51.3988 -2.14122L53.5 0L51.399 -2.14143Q51.5042 -2.24464 51.619 -2.33705Q51.7338 -2.42946 51.8571 -2.51017Q51.9804 -2.59088 52.1111 -2.65911Q52.2417 -2.72734 52.3784 -2.78245Q52.5151 -2.83755 52.6565 -2.87898Q52.798 -2.92042 52.9428 -2.94779Q53.0876 -2.97517 53.2344 -2.98822Q53.3812 -3.00127 53.5286 -2.99986Q53.6759 -2.99846 53.8225 -2.98262Q53.969 -2.96677 54.1133 -2.93665Q54.2575 -2.90652 54.3981 -2.8624Q54.5388 -2.81827 54.6744 -2.76058Q54.81 -2.70288 54.9393 -2.63217Q55.0686 -2.56147 55.1904 -2.47842Q55.3121 -2.39538 55.4252 -2.3008Q55.5382 -2.20622 55.6414 -2.10102Q55.7446 -1.99583 55.837 -1.88102Q55.9294 -1.76622 56.0101 -1.64291Q56.0909 -1.5196 56.1591 -1.38898Q56.2273 -1.25835 56.2824 -1.12167Q56.3375 -0.984989 56.379 -0.843564Q56.4204 -0.702139 56.4478 -0.557333Q56.4752 -0.412527 56.4882 -0.265735Q56.5013 -0.118944 56.4999 0.0284209Q56.4985 0.175785 56.4826 0.322304Q56.4668 0.468822 56.4367 0.613083Q56.4066 0.757344 56.3625 0.897958Q56.3183 1.03857 56.2607 1.17419Q56.203 1.3098 56.1323 1.43911Q56.0616 1.56842 55.9786 1.69017Q55.8955 1.81193 55.801 1.92496Q55.7064 2.038 55.6012 2.14122L55.601 2.14143L32.569 24.7434Q31.4318 25.857 29.9618 26.4491Q28.5419 27.0211 27.0074 27.0287Q25.471 27.0364 24.045 26.4771Q22.5667 25.8974 21.4191 24.7909L-2.08092 2.16096L-2.08094 2.16094Z " /><path id="路径 1" style="stroke:url(#linear_1); stroke-width:6; stroke-opacity:100; stroke-dasharray:0 0" transform="translate(0 11.587194981736147)  rotate(0 26.75 13)" d="" /><path id="路径 1"  style="fill:#43E97B" transform="translate(23.51208801131483 1.6035278784301568)  rotate(37.535704822690235 9.67010341221313 20.71253934566543)" opacity="0.9" d="M22.3128 0.40306L19.1375 -0.0274528L22.3131 0.402626Q22.3328 0.256579 22.3382 0.109296Q22.3436 -0.0379865 22.3345 -0.185086Q22.3254 -0.332186 22.3019 -0.477686Q22.2785 -0.623186 22.2408 -0.765686Q22.2032 -0.908185 22.1518 -1.04631Q22.1004 -1.18444 22.0357 -1.31686Q21.971 -1.44928 21.8937 -1.57473Q21.8163 -1.70017 21.727 -1.81743Q21.6378 -1.93469 21.5374 -2.04263Q21.4371 -2.15057 21.3266 -2.24816Q21.2162 -2.34574 21.0967 -2.43203Q20.9772 -2.51832 20.8498 -2.59249Q20.7225 -2.66665 20.5885 -2.72797Q20.4545 -2.7893 20.3151 -2.83719Q20.1757 -2.88508 20.0323 -2.91908Q19.8889 -2.95308 19.7428 -2.97286Q19.45 -3.01252 19.1551 -2.99429Q18.8602 -2.97606 18.5745 -2.90064Q18.2888 -2.82523 18.0233 -2.69553Q17.7579 -2.56583 17.5228 -2.38683Q17.2877 -2.20786 17.0921 -1.98648Q16.8965 -1.7651 16.7478 -1.50982Q16.5991 -1.25454 16.5031 -0.975156Q16.4071 -0.695776 16.3674 -0.403032L16.3672 -0.40306L12.1072 31.0169Q12.0371 31.5303 11.7068 31.9245Q11.3789 32.3158 10.8904 32.4712Q10.4032 32.6262 9.90785 32.4955Q9.40851 32.3638 9.05317 31.983L2.20007 24.5905L-0.00181951 26.6317L2.19901 24.5893Q2.09875 24.4813 1.98839 24.3836Q1.87804 24.2859 1.75864 24.1995Q1.63923 24.1131 1.51194 24.0389Q1.38464 23.9646 1.25068 23.9031Q1.11672 23.8417 0.97738 23.7937Q0.838041 23.7457 0.694666 23.7115Q0.551291 23.6774 0.405261 23.6575Q0.259232 23.6376 0.111954 23.6321Q-0.0353242 23.6266 -0.182432 23.6356Q-0.32954 23.6445 -0.475061 23.6678Q-0.620582 23.6912 -0.763115 23.7287Q-0.905647 23.7662 -1.04382 23.8174Q-1.18199 23.8687 -1.31447 23.9333Q-1.44695 23.9979 -1.57246 24.0751Q-1.69798 24.1524 -1.81531 24.2416Q-1.93265 24.3307 -2.04068 24.431Q-2.14867 24.5312 -2.24633 24.6415Q-2.34398 24.7518 -2.43036 24.8712Q-2.51673 24.9906 -2.591 25.1178Q-2.66526 25.2451 -2.7267 25.379Q-2.78814 25.5129 -2.83616 25.6522Q-2.88419 25.7914 -2.91833 25.9348Q-2.95247 26.0781 -2.97241 26.2241Q-2.99235 26.37 -2.99788 26.5173Q-3.00342 26.6645 -2.9945 26.8116Q-2.98559 26.9586 -2.9623 27.1041Q-2.93902 27.2496 -2.9016 27.3921Q-2.86417 27.5346 -2.81296 27.6727Q-2.76175 27.8109 -2.69726 27.9433Q-2.63276 28.0758 -2.55559 28.2013Q-2.47842 28.3268 -2.38933 28.4441Q-2.30024 28.5615 -2.20007 28.6695L-2.19901 28.6707L4.66683 36.077Q5.4268 36.8912 6.38185 37.4595Q7.32094 38.0183 8.37715 38.297Q9.4358 38.5763 10.5288 38.5522Q11.6445 38.5277 12.7096 38.1888Q13.7738 37.8502 14.6972 37.2274Q15.6032 36.6164 16.3057 35.778Q17.0068 34.9413 17.4507 33.9433Q17.9017 32.9292 18.0528 31.8231L22.3128 0.40306Z " /><path  id="路径 1" style="stroke:#43E97B; stroke-width:6; stroke-opacity:0.9; stroke-dasharray:0 0" transform="translate(23.51208801131483 1.6035278784301568)  rotate(37.535704822690235 9.67010341221313 20.71253934566543)" d="" /></g><g opacity="1" transform="translate(12.75 0)  rotate(0 14 10)"><mask id="bg-mask-0" fill="white"><use xlink:href="#path_0"></use></mask><g mask="url(#bg-mask-0)" ><g opacity="1" transform="translate(0 0)  rotate(0 14 10)"><g opacity="1" transform="translate(0 0)  rotate(0 9.934400421623755 9.99997223044444)"><g opacity="1" transform="translate(-4.3624546608287575 -8.769204832329875)  rotate(0 0.5606698883826394 0.5553890272549709)"></g><path id="路径 2" fill-rule="evenodd" style="fill:#12D2AC" transform="translate(0 0)  rotate(0 9.934400421623755 9.99997223044444)" opacity="1" d="M9.93,18.29L18.2,9.91C20.42,7.65 20.42,4.05 18.2,1.8L18.11,1.71C18.08,1.67 18.05,1.64 18.02,1.61C15.76,-0.57 12.14,-0.53 9.93,1.71L1.67,10.09C-0.56,12.35 -0.56,15.95 1.67,18.2L1.76,18.29C1.79,18.33 1.82,18.36 1.85,18.39C4.11,20.57 7.73,20.53 9.93,18.29Z " /><path id="路径 2" fill-rule="evenodd" style="fill:#12D2AC" transform="translate(0 0)  rotate(0 9.934400421623755 9.99997223044444)" opacity="1" d="M9.93,18.29L18.2,9.91C20.42,7.65 20.42,4.05 18.2,1.8L18.11,1.71C18.08,1.67 18.05,1.64 18.02,1.61C15.76,-0.57 12.14,-0.53 9.93,1.71L1.67,10.09C-0.56,12.35 -0.56,15.95 1.67,18.2L1.76,18.29C1.79,18.33 1.82,18.36 1.85,18.39C4.11,20.57 7.73,20.53 9.93,18.29Z " /></g><g opacity="1" transform="translate(8.236078066073345 0.00007775446381641515)  rotate(0 9.881960966963325 9.99996112276809)"><g opacity="1" transform="translate(-12.598532726902103 -8.76928258679369)  rotate(0 0.5606698883826394 0.5553890272549709)"></g><path id="路径 4" fill-rule="evenodd" style="fill:#307AF2" transform="translate(0 4.440892098500626e-16)  rotate(0 9.881960966963325 9.99996112276809)" opacity="1" d="M9.79,1.61C7.53,-0.57 3.91,-0.53 1.71,1.71C-0.57,4.01 -0.57,7.69 1.71,10L9.88,18.29C9.91,18.33 9.95,18.36 9.98,18.39C12.24,20.57 15.85,20.53 18.06,18.29C20.33,15.99 20.33,12.31 18.06,10L9.88,1.71C9.85,1.67 9.82,1.64 9.79,1.61Z " /><path id="路径 4" fill-rule="evenodd" style="fill:#307AF2" transform="translate(0 4.440892098500626e-16)  rotate(0 9.881960966963325 9.99996112276809)" opacity="1" d="M9.79,1.61C7.53,-0.57 3.91,-0.53 1.71,1.71C-0.57,4.01 -0.57,7.69 1.71,10L9.88,18.29C9.91,18.33 9.95,18.36 9.98,18.39C12.24,20.57 15.85,20.53 18.06,18.29C20.33,15.99 20.33,12.31 18.06,10L9.88,1.71C9.85,1.67 9.82,1.64 9.79,1.61Z " /></g><g opacity="1" transform="translate(5.842892287705351 0.05798070082976681)  rotate(0 8.1768488990646 7.042416698608466)"><path id="路径 6" fill-rule="evenodd" style="fill:#0057FE" transform="translate(0 -1.7763568394002505e-15)  rotate(0 8.1768488990646 7.042416698608466)" opacity="1" d="M12.27,1.65C9.96,-0.59 6.25,-0.54 3.98,1.75L0,5.79L8.18,14.08L16.35,5.79L12.37,1.75C12.34,1.72 12.3,1.68 12.27,1.65Z " /></g></g></g></g></g></svg>